<svg width="23" height="23" viewBox="0 0 23 23" fill="none" xmlns="http://www.w3.org/2000/svg">
<path d="M3.36914 23H19.6309C21.4886 23 23 21.4886 23 19.6309V3.36914C23 1.51138 21.4886 0 19.6309 0H3.36914C1.51138 0 0 1.51138 0 3.36914V19.6309C0 21.4886 1.51138 23 3.36914 23ZM1.34766 3.36914C1.34766 2.25452 2.25452 1.34766 3.36914 1.34766H19.6309C20.7455 1.34766 21.6523 2.25452 21.6523 3.36914V19.6309C21.6523 20.7455 20.7455 21.6523 19.6309 21.6523H3.36914C2.25452 21.6523 1.34766 20.7455 1.34766 19.6309V3.36914Z" fill="#086578"/>
<path d="M11.5 17.5645C14.8439 17.5645 17.5645 14.8439 17.5645 11.5C17.5645 8.15613 14.8439 5.43555 11.5 5.43555C8.15613 5.43555 5.43555 8.15613 5.43555 11.5C5.43555 14.8439 8.15613 17.5645 11.5 17.5645ZM11.5 6.7832C14.1009 6.7832 16.2168 8.89909 16.2168 11.5C16.2168 14.1009 14.1009 16.2168 11.5 16.2168C8.89909 16.2168 6.7832 14.1009 6.7832 11.5C6.7832 8.89909 8.89909 6.7832 11.5 6.7832Z" fill="#086578"/>
<path d="M18.2383 6.7832C19.3529 6.7832 20.2598 5.87634 20.2598 4.76172C20.2598 3.64709 19.3529 2.74023 18.2383 2.74023C17.1237 2.74023 16.2168 3.64709 16.2168 4.76172C16.2168 5.87634 17.1237 6.7832 18.2383 6.7832ZM18.2383 4.08789C18.6098 4.08789 18.9121 4.39024 18.9121 4.76172C18.9121 5.1332 18.6098 5.43555 18.2383 5.43555C17.8668 5.43555 17.5645 5.1332 17.5645 4.76172C17.5645 4.39024 17.8668 4.08789 18.2383 4.08789Z" fill="#086578"/>
</svg>
