<svg width="29" height="23" viewBox="0 0 29 23" fill="none" xmlns="http://www.w3.org/2000/svg">
<path d="M28.1016 3.07166C26.3339 3.15313 26.3725 3.14649 26.1727 3.16321L27.2196 0.173428C27.2196 0.173428 23.9517 1.37556 23.1233 1.5906C20.9476 -0.364926 17.7136 -0.451328 15.4015 0.969703C13.5082 2.13367 12.4919 4.1325 12.8309 6.4688C9.14601 5.95746 6.04131 4.21076 3.5901 1.26622L2.81483 0.335084L2.23553 1.39893C1.50336 2.7432 1.26023 4.28023 1.55074 5.72677C1.66995 6.32022 1.87255 6.88624 2.1532 7.41623L1.48814 7.15852L1.40924 8.26975C1.32927 9.39855 1.70511 10.7162 2.41477 11.7942C2.61459 12.0978 2.87186 12.4312 3.19796 12.7601L2.85428 12.7074L3.27365 13.9807C3.82486 15.6536 4.96975 16.9479 6.45553 17.6675C4.97168 18.2971 3.77298 18.6989 1.80266 19.3471L0 19.9397L1.66502 20.85C2.29985 21.1971 4.5431 22.3564 6.75954 22.7041C11.6864 23.4768 17.2335 22.8475 20.9679 19.4843C24.1134 16.6514 25.1455 12.6218 24.9311 8.4284C24.8987 7.79357 25.0726 7.18768 25.4208 6.72265C26.1182 5.79152 28.0973 3.07788 28.1016 3.07166ZM24.1041 5.73642C23.5259 6.50847 23.2363 7.49448 23.2881 8.51245C23.5045 12.7423 22.3536 16.0226 19.8672 18.2618C16.9628 20.8776 12.2779 21.9044 7.01446 21.0788C6.06125 20.9293 5.07609 20.5946 4.26073 20.2604C5.91267 19.692 7.18834 19.1854 9.24849 18.2103L12.1244 16.8491L8.94919 16.6459C7.42825 16.5485 6.1618 15.8114 5.38332 14.6146C5.79668 14.5906 6.19525 14.5237 6.5921 14.4131L9.62047 13.5697L6.5668 12.8218C5.08295 12.4584 4.23715 11.5706 3.78884 10.8897C3.49448 10.4422 3.30216 9.98386 3.18681 9.56128C3.49297 9.6434 3.84995 9.70193 4.42561 9.75896L7.25202 10.0385L5.01263 8.29162C3.39907 7.0331 2.75244 5.14232 3.22648 3.32465C8.26226 8.54782 14.1749 8.15526 14.7701 8.29333C14.6391 7.02088 14.6357 7.01788 14.6014 6.89674C13.8392 4.2024 15.5096 2.83432 16.263 2.37122C17.8366 1.40407 20.3346 1.25828 22.0648 2.85169C22.4385 3.19558 22.9438 3.33087 23.4168 3.21338C23.8413 3.1079 24.1897 2.99619 24.5308 2.87463L23.8207 4.90241L24.7272 4.90305C24.5561 5.13246 24.3509 5.4071 24.1041 5.73642Z" fill="#086578"/>
</svg>
