<svg width="25" height="25" viewBox="0 0 25 25" fill="none" xmlns="http://www.w3.org/2000/svg">
<path d="M6.04649 23.2161C7.97806 24.3784 10.1866 24.991 12.4557 24.991C19.3319 24.991 25 19.38 25 12.4954C25 5.61886 19.3399 0 12.4557 0C5.59254 0 0.00896455 5.60551 0.00896455 12.4954C0.00896455 14.7949 0.621796 17.0202 1.78394 18.9533L0 25L6.04649 23.2161ZM1.47343 12.4954C1.47343 6.41289 6.40011 1.46427 12.4557 1.46427C18.5652 1.46427 23.5357 6.41289 23.5357 12.4954C23.5357 18.5781 18.5652 23.5266 12.4557 23.5266C10.3535 23.5266 8.31051 22.9311 6.54831 21.8042L6.26678 21.6244L2.16579 22.8344L3.37563 18.7332L3.19576 18.4519C2.0689 16.6893 1.47343 14.6297 1.47343 12.4954Z" fill="#086578"/>
<path d="M6.0854 10.1931C6.32725 11.4632 7.04518 13.9061 9.13544 15.9964C11.2257 18.0866 13.6686 18.8047 14.9389 19.0466C16.3935 19.3235 18.528 19.3653 19.5711 18.3222L20.1527 17.7406C20.4462 17.4471 20.608 17.0567 20.608 16.6414C20.608 16.2262 20.4462 15.836 20.1527 15.5424L17.827 13.2168C17.5333 12.923 17.1431 12.7615 16.7278 12.7615C16.3126 12.7615 15.9224 12.923 15.6286 13.2168L15.0473 13.7981C14.6921 14.1533 14.0217 14.1548 13.6639 13.8025L11.3442 11.3855C11.3407 11.3819 11.3373 11.3783 11.3337 11.3749C10.9779 11.0191 10.9779 10.4403 11.3337 10.0845L11.915 9.50317C12.5227 8.89549 12.5227 7.91225 11.915 7.30476L9.58939 4.97913C8.98343 4.37317 7.99733 4.37317 7.39117 4.97913L6.80981 5.56068C5.97726 6.39343 5.69974 8.16822 6.0854 10.1931ZM7.84531 6.59618C8.45566 5.99976 8.42305 5.98831 8.49038 5.98831C8.51346 5.98831 8.53654 5.99709 8.55408 6.01463C11.0046 8.47836 10.9062 8.33359 10.9062 8.40416C10.9062 8.42876 10.8973 8.45032 10.8799 8.46786L10.2984 9.04922C9.37234 9.97524 9.36871 11.4742 10.2924 12.4044L12.6135 14.823C12.6171 14.8264 12.6206 14.83 12.6242 14.8336C13.55 15.7595 15.1539 15.7625 16.0828 14.8336L16.6641 14.2523C16.6992 14.2172 16.7564 14.2172 16.7915 14.2523C19.2421 16.7158 19.1437 16.571 19.1437 16.6416C19.1437 16.6664 19.1347 16.6878 19.1174 16.7053L18.5358 17.2867C18.1374 17.6851 16.8682 17.9235 15.2128 17.6083C14.1081 17.3977 11.9839 16.774 10.1709 14.9611C8.35801 13.1481 7.7343 11.0239 7.52392 9.91917C7.20845 8.26378 7.44687 6.99444 7.84531 6.59618Z" fill="#086578"/>
</svg>
